<svg width="413" height="119" viewBox="0 0 413 119" fill="none" xmlns="http://www.w3.org/2000/svg">
<path d="M412.5 112.542L407 118.413H287L282 112.542H132L127 118.413H7L1 112.542M408 97.2786L372.18 13.164C369.039 5.78766 361.796 1 353.779 1H60.221C52.2037 1 44.9612 5.78765 41.82 13.164L6 97.2786" stroke="white"/>
<path d="M133.5 113.716H280.5L285 119H129L133.5 113.716Z" fill="white"/>
<path d="M64.5 6.28357H171.5L176 0.999987H60L64.5 6.28357Z" fill="white"/>
<path d="M241.5 6.28357H348.5L353 0.999987H237L241.5 6.28357Z" fill="white"/>
<path d="M10.9895 96.1363L36.5117 36.2948L34.503 29.2045L4.95092 98.4948L10.9895 96.1363Z" fill="white"/>
<path d="M402.985 96.1363L377.463 36.2948L379.472 29.2045L409.024 98.4948L402.985 96.1363Z" fill="white"/>
<path d="M62 104.323H39.315C37.7918 104.323 36.2887 103.975 34.9205 103.306L29.1951 100.505C26.8334 99.3497 25.7699 96.5625 26.7618 94.1276L36 71.4478L52.615 32.4315C54.9709 26.8992 60.4028 23.3085 66.4157 23.3085H151.75M352 104.323H374.769C376.238 104.323 377.69 104 379.02 103.375L385.136 100.502C387.572 99.3584 388.665 96.4927 387.611 94.0174L378 71.4478L361.385 32.4315C359.029 26.8992 353.597 23.3085 347.584 23.3085H262.25" stroke="white"/>
<path fill-rule="evenodd" clip-rule="evenodd" d="M57 45.1392L41 82.7113L35.5 81.5372L50.5 46.3133L57 45.1392ZM83 45.1392H60L44.8633 80.684L44 82.7113H67L83 45.1392ZM86 45.1392H109L93 82.7113H70L70.8633 80.684L86 45.1392ZM135 45.1392H112L96.8633 80.684L96 82.7113H119L135 45.1392Z" fill="url(#paint0_linear_65_30426)"/>
<path fill-rule="evenodd" clip-rule="evenodd" d="M357 45.1392L373 82.7113L378.5 81.5372L363.5 46.3133L357 45.1392ZM331 45.1392H354L369.137 80.684L370 82.7113H347L331 45.1392ZM328 45.1392H305L321 82.7113H344L343.137 80.684L328 45.1392ZM279 45.1392H302L317.137 80.684L318 82.7113H295L279 45.1392Z" fill="url(#paint1_linear_65_30426)"/>
<defs>
<linearGradient id="paint0_linear_65_30426" x1="31.5" y1="37.5073" x2="127.886" y2="74.0915" gradientUnits="userSpaceOnUse">
<stop stop-color="#C4C4C4"/>
<stop offset="0.869042" stop-color="#C4C4C4" stop-opacity="0"/>
</linearGradient>
<linearGradient id="paint1_linear_65_30426" x1="373" y1="39.8556" x2="290.927" y2="77.5297" gradientUnits="userSpaceOnUse">
<stop stop-color="#C4C4C4"/>
<stop offset="0.837503" stop-color="#C4C4C4" stop-opacity="0"/>
</linearGradient>
</defs>
</svg>
